<?xml version="1.0" encoding="utf-8"?>
<!-- Generator: Adobe Illustrator 22.0.1, SVG Export Plug-In . SVG Version: 6.00 Build 0)  -->
<svg version="1.1" id="Layer_1" xmlns="http://www.w3.org/2000/svg" xmlns:xlink="http://www.w3.org/1999/xlink" x="0px" y="0px"
	 viewBox="0 0 283.5 94.7" style="enable-background:new 0 0 283.5 94.7;" xml:space="preserve">
<style type="text/css">
	.st0{fill:#1D1E1B;}
	.st1{fill:#999999;}
</style>
<g>
	<path class="st0" d="M64.5,93.5h10.8l15-41.3c0,0,12.2,0,19.6,0c8.7,0,10.7,5.6,7.9,12.9c-2.2,6-10.3,28.4-10.3,28.4h10.8
		c0,0,4.4-12,11.2-30.8c4.8-13.3-4.7-20.8-16.5-20.8c-15.4,0-29.7,0-29.7,0L64.5,93.5z"/>
	<path class="st0" d="M257,93.5l3.8-10.4c0,0-32.7,0-38.1,0c-5.4,0-3.6-3.6-2-8.1c1.6-4.5,1.2-3.2,2.5-7
		c4.1-11.2,12.4-15.6,19.2-15.6c5.6,0,29.5,0,29.5,0l3.8-10.5c0,0-11.7,0-27.9,0c-15.8,0.1-29.9,10.9-34.4,23.3
		c-2.7,7.5-3.1,8.6-5.9,16.3c-2.8,7.7,0.5,12.1,7.2,12.1C221.5,93.5,257,93.5,257,93.5z"/>
	<path class="st0" d="M197.4,93.5l3.8-10.4c0,0-32.7,0-38.1,0c-5.4,0-3.6-3.6-2-8.1c1.6-4.5,1.2-3.2,2.5-7
		c4.1-11.2,12.4-15.6,19.2-15.6c5.6,0,29.5,0,29.5,0l3.8-10.5c0,0-11.7,0-27.9,0c-15.8,0.1-29.9,10.9-34.4,23.3
		c-2.7,7.5-3.1,8.6-5.9,16.3c-2.8,7.7,0.5,12.1,7.2,12.1C161.9,93.5,197.4,93.5,197.4,93.5z"/>
	<g>
		<path class="st1" d="M144.3,30.6c14.4-6.1,27.1-4.9,28.4,2.8c0.4,2.2-0.3,4.7-1.7,7.3c4.3-4.1,6.7-8.3,6.2-11.7
			c-1-7-13.4-8.2-27.8-2.6c-9.3,3.6-17.2,9.1-21.3,14.5C132.3,37,137.9,33.3,144.3,30.6z"/>
		<path class="st1" d="M140.3,16c27.8-11.8,52.3-9.4,54.8,5.5c0.7,4.3-0.5,9.1-3.3,14.2c8.3-7.8,12.9-16,12-22.6
			c-1.8-13.5-25.9-15.7-53.7-5C132.1,15,117,25.7,109,36C117.1,28.3,128,21.2,140.3,16z"/>
		<path class="st1" d="M155.4,45.2c-1.5,4-5.9,7.3-9.9,7.3c-4,0-6.1-3.3-4.6-7.3c1.5-4,5.9-7.3,9.9-7.3
			C154.8,37.9,156.8,41.2,155.4,45.2z"/>
	</g>
	<path class="st0" d="M51.8,77.9c-2,5.4-5.4,4.9-9.9,4.9c-1.3,0-14.5,0-16.7,0c-4.5,0-8.2,0.4-6.3-4.9c1.7-4.6,10.6-29.2,13.2-36.2
		H21.6C18.9,49.1,9.1,76.2,7,82c-2.4,6.7,0.1,11.6,7.8,11.6c3,0,28.1,0,29.6,0c7.7,0,13.8-4.9,16.3-11.6c2.1-5.7,12-32.9,14.7-40.3
		H64.9C62.4,48.7,53.4,73.3,51.8,77.9z"/>
	<path class="st0" d="M34.3,29.2c1.8,0,9.3,0,9.3,0l0.6-1.7c0,0-3.7,0-8.7,0c-4.9,0-8.8,1.8-9.5,3.8c-0.2,0.6-1.6,4.3-1.7,4.6h3.4
		c0.1-0.3,1.3-3.7,1.5-4.2C29.8,29.9,32.1,29.2,34.3,29.2z"/>
	<g>
		<polygon class="st0" points="82,35.9 85.2,35.9 86.8,31.3 83.7,31.3 		"/>
		<path class="st0" d="M88.6,28.7c-0.2,0.7-1.5,1.2-2.7,1.2c-1.3,0-2.1-0.5-1.8-1.2c0.2-0.7,1.5-1.2,2.7-1.2
			C88,27.5,88.8,28,88.6,28.7z"/>
	</g>
	<path class="st0" d="M103.9,27.5c-0.7,0-4.9,0-5.1,0c-4.9,0-8.8,1.8-9.5,3.8c-0.4,1.2-0.5,1.4-1,2.7c-0.5,1.3,0.8,2,2.9,2
		c0.8,0,5,0,5.1,0c4.9,0,8.8-1.8,9.5-3.8c0.4-1.2,0.5-1.4,1-2.7C107.3,28.2,106,27.5,103.9,27.5z M103,30.5
		c-0.3,0.7-0.2,0.5-0.4,1.1c-0.7,1.8-3,2.5-5.2,2.5c-0.2,0-0.4,0-0.7,0v0c-1.7,0-3.1,0-3.6,0c-1.7,0-1.3-0.6-1.1-1.3
		c0.3-0.7,0.2-0.5,0.4-1.1c0.7-1.8,3-2.5,5.2-2.5c0.3,0,0.6,0,1.1,0v0c1.5,0,2.7,0,3.2,0C103.7,29.2,103.3,29.8,103,30.5z"/>
	<path class="st0" d="M80.9,23.1c0,0-1.5,4.2-1.6,4.4c-1.7,0-3.8,0-5.9,0c-3.7,0-8,1.2-8.8,3.4c-0.1,0.3-0.2,0.6-0.3,0.9h0
		c-0.3,0.9-0.7,1.9-0.8,2.2c-0.4,1.1,0.7,1.9,3.1,1.9c1,0,8.8,0,9.3,0c2.4,0,4.1-0.8,4.5-1.9c0.1-0.3,4-10.9,4-10.9H80.9z
		 M74.4,34.2c-0.4,0-4.6,0-5.3,0c-1.4,0-2.5,0.1-2.1-0.8c0.1-0.2,0.3-0.9,0.6-1.6h0c0.1-0.2,0.1-0.3,0.2-0.5c0.4-1.2,2-2,4.7-2
		c2.3,0,6.2,0,6.2,0c-0.6,1.8-1.4,4-1.5,4.1C76.8,34.2,75.8,34.2,74.4,34.2z"/>
	<path class="st0" d="M62.7,29.4c0.4-1.1-0.7-1.9-3.1-1.9c-0.5,0-10.7,0-13.1,0l-0.6,1.8c1.4,0,10.6,0,11.1,0c1.4,0,2.5-0.1,2.1,0.8
		c0,0-0.2,0.5-0.3,0.8c-0.1,0-9.2,0-9.7,0c-2.4,0-4.1,0.8-4.5,1.9c-0.1,0.2-0.4,1.1-0.5,1.3c-0.4,1.1,0.7,1.9,3.1,1.9
		c1,0,8.8,0,9.3,0c2.4,0,4.1-0.8,4.5-1.9C61.1,33.8,62.7,29.5,62.7,29.4z M57.9,33.4c-0.3,0.9-1.3,0.8-2.7,0.8c-0.4,0-4.6,0-5.3,0
		c-1.4,0-2.5,0.1-2.1-0.8c0,0,0-0.1,0.1-0.2c0.3-0.9,1.5-1.1,2.9-1.1c0.4,0,4.6,0,5.3,0c1.4,0,2.3,0.2,2,1.1
		C58,33.2,57.9,33.3,57.9,33.4z"/>
	<polygon class="st0" points="136.5,93.6 125.8,93.6 137.5,61.3 148.3,61.3 	"/>
</g>
</svg>
